<svg xmlns="http://www.w3.org/2000/svg" viewBox="0 0 100 100">

  <!-- Gear (thicker outer contour) -->
  <g fill="none" stroke="#000" stroke-width="8" stroke-linejoin="round">
    
    <!-- Outer circle -->
    <circle cx="50" cy="50" r="34"/>

    <!-- Teeth -->
    <defs>
      <rect id="tooth" x="46" y="4" width="8" height="14"/>
    </defs>

    <use href="#tooth" transform="rotate(0 50 50)"/>
    <use href="#tooth" transform="rotate(30 50 50)"/>
    <use href="#tooth" transform="rotate(60 50 50)"/>
    <use href="#tooth" transform="rotate(90 50 50)"/>
    <use href="#tooth" transform="rotate(120 50 50)"/>
    <use href="#tooth" transform="rotate(150 50 50)"/>
    <use href="#tooth" transform="rotate(180 50 50)"/>
    <use href="#tooth" transform="rotate(210 50 50)"/>
    <use href="#tooth" transform="rotate(240 50 50)"/>
    <use href="#tooth" transform="rotate(270 50 50)"/>
    <use href="#tooth" transform="rotate(300 50 50)"/>
    <use href="#tooth" transform="rotate(330 50 50)"/>

  </g>

  <!-- Smaller triangle logic gate -->
  <g fill="none" stroke="#000" stroke-width="6" stroke-linecap="round">
    
    <!-- Triangle -->
    <polygon points="38,35 38,65 65,50"/>

    <!-- Input lines -->
    <line x1="26" y1="42" x2="38" y2="42"/>
    <line x1="26" y1="58" x2="38" y2="58"/>

    <!-- Output line -->
    <line x1="65" y1="50" x2="78" y2="50"/>

  </g>

</svg>